<svg xmlns="http://www.w3.org/2000/svg" width="256" height="257" viewBox="0 0 256 257" fill="none">
<path d="M215.957 159.054C215.355 163.688 218.653 167.975 223.324 168.63C227.994 169.286 232.269 166.061 232.871 161.427L224.414 160.241L215.957 159.054ZM56.0486 139.789C56.7481 144.425 61.0903 147.666 65.7473 147.028C70.4043 146.389 73.6125 142.114 72.913 137.478L64.4808 138.634L56.0486 139.789ZM169.965 99.3828C169.657 104.048 173.216 108.125 177.915 108.49C182.614 108.854 186.673 105.367 186.982 100.702L178.474 100.042L169.965 99.3828ZM57.6657 85.5285C53.3926 87.4431 51.5332 92.4566 53.5124 96.7266C55.4917 100.997 60.5603 102.906 64.8333 100.992L61.2495 93.26L57.6657 85.5285ZM224.414 160.241L232.871 161.427C233.939 153.206 229.649 146.52 224.347 141.741C219.078 136.992 211.793 133.105 203.801 129.904C187.699 123.454 166.314 118.85 145.324 116.375C124.336 113.9 102.972 113.464 86.8509 115.756C78.9066 116.886 71.437 118.781 65.8788 121.972C60.181 125.243 54.7406 131.121 56.0486 139.789L64.4808 138.634L72.913 137.478C72.911 137.465 72.9261 137.574 72.8888 137.749C72.872 137.828 72.8494 137.897 72.8273 137.95C72.8056 138.002 72.7899 138.026 72.7929 138.022C72.8244 137.972 73.2017 137.443 74.5448 136.672C77.332 135.072 82.2801 133.554 89.4688 132.532C103.613 130.521 123.377 130.827 143.52 133.202C163.661 135.577 183.412 139.93 197.593 145.611C204.742 148.474 209.885 151.445 212.975 154.23C216.03 156.984 216.028 158.507 215.957 159.054L224.414 160.241ZM178.474 100.042L186.982 100.702C187.37 94.8535 185.178 89.7968 181.456 85.902C177.955 82.2403 173.273 79.7481 168.461 77.9907C158.839 74.4757 146.158 72.9961 133.116 72.8209C107.062 72.4708 75.9773 77.324 57.6657 85.5285L61.2495 93.26L64.8333 100.992C80.1246 94.1403 108.509 89.4352 133.095 89.7656C145.373 89.9305 155.806 91.3508 162.751 93.8879C166.224 95.1566 168.19 96.4786 169.159 97.4932C169.906 98.2747 170.007 98.7564 169.965 99.3828L178.474 100.042Z" fill="url(#paint0_linear_12545_35235)"/>
<path d="M129.886 169.223C150.029 161.866 216.726 138.26 215.075 185.093C222.048 184.894 228.109 196.417 223.494 200.617C219.802 203.977 211.865 197.729 208.357 194.185C193.208 198.941 155.979 208.397 128.26 208.173C100.54 207.949 63.9154 200.776 47.6694 196.24C44.6224 197.175 35.8238 202.071 32.4794 196.675C29.135 191.278 43.4325 178.816 44.0485 182.923C42.9418 144.249 115.201 164.049 129.886 169.223Z" fill="white" stroke="#222222" stroke-width="2" stroke-linecap="round" stroke-linejoin="round"/>
<rect width="81.1567" height="124.813" rx="10.2939" transform="matrix(-0.992948 0.11855 0.11855 0.992948 156.156 46)" fill="#222222"/>
<rect width="72.0573" height="124.813" rx="10.2939" transform="matrix(-0.992948 0.11855 0.11855 0.992948 156.156 46)" fill="#222222" stroke="white" stroke-width="2"/>
<rect width="59.9909" height="113.017" rx="5.14695" transform="matrix(-0.992948 0.11855 0.11855 0.992948 150.532 53.0922)" fill="white"/>
<path d="M135.156 101.464C134.732 101.11 134.632 100.447 134.933 99.984C135.234 99.5208 135.821 99.4325 136.245 99.7867L135.7 100.625L135.156 101.464ZM148.707 97.9124C149.008 97.4493 149.595 97.3609 150.019 97.7151C150.443 98.0694 150.543 98.732 150.242 99.1952L149.475 98.5538L148.707 97.9124ZM135.7 100.625L136.245 99.7867C140.27 103.152 145.85 102.313 148.707 97.9124L149.475 98.5538L150.242 99.1952C146.783 104.522 140.029 105.537 135.156 101.464L135.7 100.625Z" fill="#222222"/>
<path d="M120.001 118.255C119.577 117.901 119.478 117.239 119.778 116.775C120.079 116.312 120.667 116.224 121.09 116.578L120.546 117.417L120.001 118.255ZM133.553 114.704C133.853 114.241 134.441 114.152 134.864 114.507C135.288 114.861 135.388 115.523 135.087 115.987L134.32 115.345L133.553 114.704ZM120.546 117.417L121.09 116.578C125.116 119.943 130.695 119.104 133.553 114.704L134.32 115.345L135.087 115.987C131.628 121.313 124.874 122.329 120.001 118.255L120.546 117.417Z" fill="#222222"/>
<path d="M101.937 105.431C101.513 105.077 101.414 104.414 101.714 103.951C102.015 103.488 102.603 103.399 103.026 103.753L102.482 104.592L101.937 105.431ZM115.489 101.879C115.789 101.416 116.377 101.328 116.8 101.682C117.224 102.036 117.324 102.699 117.023 103.162L116.256 102.521L115.489 101.879ZM102.482 104.592L103.026 103.753C107.052 107.118 112.631 106.279 115.489 101.879L116.256 102.521L117.023 103.162C113.564 108.488 106.81 109.504 101.937 105.431L102.482 104.592Z" fill="#222222"/>
<rect width="33.4552" height="12.8674" rx="6.43368" transform="matrix(-0.785948 -0.618293 -0.618293 0.785948 128.453 83.8224)" fill="white" stroke="#222222" stroke-width="2"/>
<rect width="33.4552" height="12.8674" rx="6.43368" transform="matrix(-0.618293 0.785948 0.785948 0.618293 116.617 61.4115)" fill="white" stroke="#222222" stroke-width="2"/>
<path d="M82.1509 75.8932L83.8288 89.9475" stroke="white" stroke-width="2" stroke-linecap="round"/>
<path d="M85.8159 106.557L86.7312 114.223" stroke="white" stroke-width="2" stroke-linecap="round"/>
<path d="M87.1875 118.056L88.1028 125.722" stroke="white" stroke-width="2" stroke-linecap="round"/>
<circle cx="1.28674" cy="1.28674" r="1.28674" transform="matrix(-0.992948 0.11855 0.11855 0.992948 114.4 74.6354)" fill="#222222"/>
<circle cx="1.28674" cy="1.28674" r="1.28674" transform="matrix(-0.992948 0.11855 0.11855 0.992948 111.023 78.9257)" fill="#222222"/>
<circle cx="1.28674" cy="1.28674" r="1.28674" transform="matrix(-0.992948 0.11855 0.11855 0.992948 110.565 75.093)" fill="#222222"/>
<circle cx="1.28674" cy="1.28674" r="1.28674" transform="matrix(-0.992948 0.11855 0.11855 0.992948 114.858 78.468)" fill="#222222"/>
<path d="M130.624 175.47C134.555 172.14 147.6 157.198 190.811 170.69C186.45 178.874 155.468 186.546 130.926 187.179C111.292 187.686 75.857 178.636 60.5938 174.048C82.2353 160.03 121 167.335 130.624 175.47Z" fill="white"/>
<path d="M190.811 170.69C147.6 157.198 134.555 172.14 130.624 175.47M130.624 175.47C121 167.335 82.2353 160.03 60.5938 174.048M130.624 175.47C129.243 177.121 125.65 181.416 122.323 185.397" stroke="#222222" stroke-width="2" stroke-linecap="round" stroke-linejoin="round"/>
<path d="M50.7071 103.771C54.441 103.094 60.2192 100.787 63.6369 99.3464C63.6369 99.3464 68.0091 98.0513 65.1114 90.9111C62.8533 85.3469 57.7384 87.7426 57.7384 87.7426L54.9238 88.9711C54.0175 89.3833 53.4493 89.9568 53.0917 90.7412C52.7255 91.4748 52.565 92.378 52.5076 93.3202C52.4567 94.2063 52.2193 95.0701 51.7519 95.7768C51.2889 96.4947 50.6052 97.107 49.6951 97.3822C48.8026 97.6972 48.0551 98.1432 47.5276 98.7519C47.0037 99.3669 46.6994 100.148 46.7538 101.041C46.808 101.934 47.2538 102.701 47.9738 103.211C48.6916 103.731 49.6806 103.977 50.7071 103.771Z" fill="#22E243"/>
<path d="M41.1297 99.6859C39.5441 99.8072 38.3391 101.238 38.4382 102.883C38.5373 104.527 39.903 105.762 41.4886 105.64C43.0741 105.519 44.2792 104.088 44.18 102.444C44.0809 100.799 42.7152 99.5647 41.1297 99.6859Z" fill="#22E243"/>
<path d="M72.9794 138.018C72.5789 133.351 68.4504 129.843 63.7583 130.184C59.0661 130.525 55.5871 134.585 55.9877 139.252L64.4835 138.635L72.9794 138.018ZM186.971 99.4075C186.56 94.7412 182.424 91.243 177.733 91.5943C173.041 91.9455 169.571 96.0131 169.983 100.679L178.477 100.043L186.971 99.4075ZM64.4835 138.635L55.9877 139.252C56.2819 142.68 57.7662 145.748 60.2311 148.095C62.5287 150.283 65.2925 151.488 67.7807 152.181C72.637 153.534 78.5113 153.494 84.3057 152.894C96.1523 151.668 111.206 147.682 125.742 142.555C140.332 137.41 154.993 130.906 166.061 124.342C171.555 121.084 176.511 117.609 180.148 114.052C181.969 112.271 183.693 110.246 184.955 107.988C186.211 105.741 187.269 102.789 186.971 99.4075L178.477 100.043L169.983 100.679C169.891 99.6399 170.253 99.2093 170.023 99.6208C169.799 100.022 169.246 100.792 168.111 101.902C165.835 104.128 162.159 106.816 157.19 109.762C147.332 115.608 133.744 121.682 119.864 126.577C105.93 131.491 92.2933 135.008 82.3324 136.039C77.2229 136.568 73.9141 136.347 72.196 135.868C71.3969 135.646 71.5257 135.523 71.9513 135.929C72.5443 136.493 72.9199 137.324 72.9794 138.018L64.4835 138.635Z" fill="#22E243"/>
<defs>
<linearGradient id="paint0_linear_12545_35235" x1="28.2524" y1="16.4406" x2="219.721" y2="149.103" gradientUnits="userSpaceOnUse">
<stop stop-color="#22E243"/>
<stop offset="0.815667" stop-color="#22E243"/>
<stop offset="0.9696" stop-color="#22E243" stop-opacity="0"/>
</linearGradient>
</defs>
</svg>