<svg xmlns="http://www.w3.org/2000/svg" width="375" height="256" viewBox="0 0 375 256" fill="none">
<g id="Variant=2" clip-path="url(#clip0_11090_24683)">
<g id="Group 1000007157">
<path id="Fill 9" fill-rule="evenodd" clip-rule="evenodd" d="M185.004 206C217.568 206 244 208.24 244 211C244 213.76 217.568 216 185.004 216C152.44 216 126 213.76 126 211C126 208.24 152.44 206 185.004 206Z" fill="#222222"/>
<path id="Stroke 11" fill-rule="evenodd" clip-rule="evenodd" d="M185.004 206C217.568 206 244 208.24 244 211C244 213.76 217.568 216 185.004 216C152.44 216 126 213.76 126 211C126 208.24 152.44 206 185.004 206Z" fill="#222222" stroke="#222222" stroke-width="2" stroke-linecap="round" stroke-linejoin="round"/>
</g>
<g id="Group 1000007151">
<path id="Vector 1472" d="M-26 120H185" stroke="url(#paint0_linear_11090_24683)" stroke-width="74.191" stroke-linecap="round" stroke-linejoin="round"/>
<g id="Union">
<path d="M-95.2556 151.916C-74.0547 156.65 -38.4454 157.332 -17.2128 157.332C-17.2128 157.332 8.73017 160.225 9.32417 116.116C9.78706 81.7438 -22.521 83.006 -22.521 83.006L-40.0999 83.2267C-45.7969 83.3854 -50.0699 85.1471 -53.7003 88.4895C-57.2634 91.5447 -60.119 95.952 -62.5168 100.794C-64.756 105.355 -67.9296 109.384 -71.9667 112.072C-76.005 114.829 -80.9733 116.539 -86.3863 115.966C-91.7944 115.643 -96.7295 116.333 -100.866 118.37C-104.997 120.45 -108.34 123.895 -110.039 128.727C-111.739 133.558 -111.092 138.594 -108.429 142.885C-105.798 147.222 -101.129 150.721 -95.2556 151.916Z" fill="#22E243"/>
<path d="M-136.691 109.069C-145.324 106.183 -154.864 111.053 -157.998 119.946C-161.131 128.84 -156.673 138.389 -148.04 141.276C-139.406 144.162 -129.867 139.293 -126.733 130.399C-123.6 121.505 -128.058 111.956 -136.691 109.069Z" fill="#22E243"/>
</g>
</g>
<g id="Group 1000007156">
<path id="Stroke 51" d="M211.999 91.8094C211.999 76.9082 199.897 64.8094 184.999 64.8094C170.1 64.8094 158.001 76.9082 158.001 91.8094C158.001 106.711 170.1 118.809 184.999 118.809C199.9 118.809 212 130.908 212 145.809C212 160.713 199.901 172.809 185 172.809C170.099 172.809 158 160.713 158 145.809" stroke="#222222" stroke-width="2" stroke-linecap="round" stroke-linejoin="round"/>
<path id="Stroke 55" d="M184.336 45.5234V186.953" stroke="#222222" stroke-width="2" stroke-linecap="round" stroke-linejoin="round"/>
</g>
<path id="Stroke 35" fill-rule="evenodd" clip-rule="evenodd" d="M90.879 186C94.6771 186 97.7596 189.082 97.7596 192.88C97.7596 196.677 94.6771 199.76 90.879 199.76C87.0825 199.76 84 196.677 84 192.88C84 189.082 87.0825 186 90.879 186Z" stroke="#222222" stroke-width="2" stroke-linecap="round" stroke-linejoin="round"/>
<g id="Group 1000007158">
<g id="Group 8">
<path id="Fill 5" fill-rule="evenodd" clip-rule="evenodd" d="M270.421 0C283.346 0 293.841 10.3481 293.841 23.0944C293.841 35.8408 283.346 46.1902 270.421 46.1902C257.493 46.1902 247 35.8408 247 23.0944C247 10.3481 257.493 0 270.421 0Z" fill="white"/>
<path id="Stroke 7" d="M270.421 2C283.346 2 293.841 12.3481 293.841 25.0944C293.841 37.8408 283.346 48.1902 270.421 48.1902C257.493 48.1902 247 37.8408 247 25.0944C247 12.3481 257.493 2 270.421 2" stroke="#222222" stroke-width="2" stroke-linecap="round" stroke-linejoin="round"/>
</g>
<path id="Stroke 9" d="M261.314 37.7809L265.285 17.7742C266.1 14.1299 268.331 11.1074 272.082 11.1074C275.835 11.1074 278.88 14.0934 278.88 17.7742" stroke="#222222" stroke-width="2" stroke-linecap="round" stroke-linejoin="round"/>
<path id="Stroke 11_2" d="M261.314 37.9099C263.464 34.211 267.679 34.6502 270.099 36.9748C272.432 39.2192 276.321 38.8581 278.88 35.9842" stroke="#222222" stroke-width="2" stroke-linecap="round" stroke-linejoin="round"/>
<path id="Stroke 13" d="M258.711 24.445H270.421" stroke="#222222" stroke-width="2" stroke-linecap="round" stroke-linejoin="round"/>
</g>
<g id="Group 1000007159">
<path id="Fill 42" fill-rule="evenodd" clip-rule="evenodd" d="M175.344 31.001C145.346 31.001 121 70.8809 121 120C121 169.119 145.346 208.999 175.344 208.999C205.341 208.999 229.687 169.119 229.687 120C229.687 70.8809 205.341 31.001 175.344 31.001Z" fill="#222222"/>
<path id="Stroke 134" fill-rule="evenodd" clip-rule="evenodd" d="M175.344 31.001C145.346 31.001 121 70.8809 121 120C121 169.119 145.346 208.999 175.344 208.999C205.341 208.999 229.687 169.119 229.687 120C229.687 70.8809 205.341 31.001 175.344 31.001Z" stroke="#222222" stroke-width="2" stroke-linecap="round" stroke-linejoin="round"/>
<path id="Fill 43" fill-rule="evenodd" clip-rule="evenodd" d="M175.346 209H195.468V31H175.346V209Z" fill="#222222"/>
<path id="Stroke 135" fill-rule="evenodd" clip-rule="evenodd" d="M175.346 209H195.468V31H175.346V209Z" stroke="#222222" stroke-width="2" stroke-linecap="round" stroke-linejoin="round"/>
<path id="Fill 44" fill-rule="evenodd" clip-rule="evenodd" d="M195.465 31.001C165.469 31.001 141.121 70.8809 141.121 120C141.121 169.119 165.469 208.999 195.465 208.999C225.462 208.999 249.808 169.119 249.808 120C249.808 70.8809 225.462 31.001 195.465 31.001Z" fill="white"/>
<path id="Stroke 136" fill-rule="evenodd" clip-rule="evenodd" d="M195.465 31.001C165.469 31.001 141.121 70.8809 141.121 120C141.121 169.119 165.469 208.999 195.465 208.999C225.462 208.999 249.808 169.119 249.808 120C249.808 70.8809 225.462 31.001 195.465 31.001Z" stroke="#222222" stroke-width="2" stroke-linecap="round" stroke-linejoin="round"/>
</g>
<g id="Group 1000007160">
<path id="Stroke 51_2" d="M216.999 95.286C216.999 80.3848 208.259 68.286 197.499 68.286C186.739 68.286 178.001 80.3848 178.001 95.286C178.001 110.187 186.739 122.286 197.499 122.286C208.261 122.286 217 134.384 217 149.286C217 164.189 208.262 176.286 197.5 176.286C186.738 176.286 178 164.189 178 149.286" stroke="#222222" stroke-width="2" stroke-linecap="round" stroke-linejoin="round"/>
<path id="Stroke 55_2" d="M197.02 49V190.429" stroke="#222222" stroke-width="2" stroke-linecap="round" stroke-linejoin="round"/>
</g>
<path id="Subtract" d="M257.464 120C282.247 123.47 298 128.671 298 134.488L297.99 134.732C297.205 145.067 246.695 153.404 184.5 153.404C122.305 153.404 71.7952 145.067 71.0098 134.732L71 134.488C71.0002 128.672 86.7527 123.47 111.535 120V122.523C109.154 122.86 106.858 123.211 104.654 123.578C94.4513 125.279 86.3396 127.282 80.8359 129.45C78.0717 130.539 76.1109 131.616 74.8848 132.614C73.6278 133.638 73.5 134.274 73.5 134.488C73.5001 134.703 73.6282 135.339 74.8848 136.362C76.1109 137.361 78.0718 138.436 80.8359 139.525C86.3396 141.694 94.4511 143.698 104.654 145.398C125.021 148.793 153.252 150.904 184.5 150.904C215.748 150.904 243.979 148.793 264.346 145.398C274.549 143.698 282.66 141.694 288.164 139.525C290.928 138.436 292.889 137.361 294.115 136.362C295.372 135.339 295.5 134.703 295.5 134.488C295.5 134.274 295.372 133.638 294.115 132.614C292.889 131.616 290.928 130.539 288.164 129.45C282.66 127.282 274.549 125.279 264.346 123.578C262.142 123.211 259.846 122.86 257.464 122.523V120Z" fill="#222222"/>
<path id="Subtract_2" d="M247.428 150C267.953 152.874 281 157.182 281 162L280.992 162.202C280.342 170.761 238.509 177.666 187 177.666C135.491 177.666 93.6583 170.761 93.0078 162.202L93 162C93 157.183 106.046 152.874 126.57 150V152.524C124.623 152.8 122.746 153.087 120.943 153.388C112.505 154.794 105.821 156.448 101.304 158.228C99.0329 159.122 97.4547 159.993 96.4883 160.78C96.0131 161.167 95.7529 161.48 95.6201 161.698C95.4975 161.899 95.5 161.99 95.5 162C95.5 162.011 95.4988 162.102 95.6201 162.301C95.7528 162.519 96.013 162.832 96.4883 163.219C97.4547 164.006 99.0328 164.877 101.304 165.771C105.821 167.551 112.505 169.205 120.943 170.611C137.781 173.418 161.137 175.166 187 175.166C212.863 175.166 236.219 173.418 253.057 170.611C261.495 169.205 268.179 167.551 272.696 165.771C274.967 164.877 276.545 164.006 277.512 163.219C277.987 162.832 278.247 162.519 278.38 162.301C278.501 162.102 278.5 162.011 278.5 162C278.5 161.99 278.502 161.899 278.38 161.698C278.247 161.48 277.987 161.167 277.512 160.78C276.545 159.993 274.967 159.122 272.696 158.228C268.179 156.448 261.495 154.794 253.057 153.388C251.253 153.087 249.375 152.8 247.428 152.524V150Z" fill="#222222"/>
<path id="Subtract_3" d="M247.428 93C267.953 95.874 281 100.182 281 105L280.992 105.202C280.451 112.323 251.407 118.297 212 120.104V117.602C227.782 116.874 241.86 115.477 253.057 113.611C261.495 112.205 268.179 110.551 272.696 108.771C274.967 107.877 276.545 107.006 277.512 106.219C277.987 105.832 278.247 105.519 278.38 105.301C278.501 105.102 278.5 105.011 278.5 105C278.5 104.99 278.502 104.899 278.38 104.698C278.247 104.48 277.987 104.167 277.512 103.78C276.545 102.993 274.967 102.122 272.696 101.228C268.179 99.4477 261.495 97.7942 253.057 96.3877C251.253 96.0872 249.375 95.7998 247.428 95.5244V93Z" fill="#222222"/>
</g>
<defs>
<linearGradient id="paint0_linear_11090_24683" x1="-77.4146" y1="140.911" x2="-85.6555" y2="276.537" gradientUnits="userSpaceOnUse">
<stop stop-color="#22E243"/>
<stop offset="0.0304" stop-color="#22E243" stop-opacity="0.98342"/>
<stop offset="0.69484" stop-color="#22E243" stop-opacity="0.63675"/>
<stop offset="1" stop-color="#22E243" stop-opacity="0.5"/>
</linearGradient>
<clipPath id="clip0_11090_24683">
<rect width="375" height="256" fill="white"/>
</clipPath>
</defs>
</svg>