<svg width="575" height="374" viewBox="0 0 575 374" fill="none" xmlns="http://www.w3.org/2000/svg">
<path d="M144.098 191.194C135.065 191.2 127.175 187.383 121.258 180.14C105.506 160.862 107.172 120.286 113.984 88.7414C119.703 62.2655 136.44 0.643308 168.31 0.258962C174.21 0.189084 179.045 4.91152 179.117 10.808C179.187 16.7053 174.465 21.5435 168.567 21.6147C160.901 21.707 144.921 46.6527 134.861 93.2495C127.841 125.749 129.049 155.922 137.795 166.627C139.658 168.909 141.631 169.868 144.207 169.836C169.668 169.529 191.479 138.812 202.548 87.6689C203.796 81.9038 209.498 78.2455 215.243 79.4911C221.007 80.7387 224.669 86.4229 223.421 92.187C204.217 180.916 161.807 190.982 144.464 191.191C144.343 191.193 144.219 191.194 144.098 191.194Z" fill="url(#paint0_radial_13435_134401)"/>
<path d="M96.9074 163.193C93.9126 163.195 90.9335 161.944 88.8199 159.502C84.9615 155.043 85.4474 148.299 89.9068 144.439C108.212 128.597 130.915 101.02 147.748 74.1845C168.358 41.3256 170.65 25.6132 169.77 21.678C169.493 21.6408 169.082 21.6102 168.566 21.617C162.724 21.6748 157.832 16.9643 157.76 11.0678C157.69 5.17077 162.412 0.332434 168.309 0.261406C168.429 0.259952 168.551 0.259176 168.671 0.259099C178.746 0.252666 186.35 5.08577 189.566 13.5596C201.591 45.2491 140.34 129.035 103.883 160.588C101.866 162.334 99.3807 163.191 96.9074 163.193Z" fill="url(#paint1_radial_13435_134401)"/>
<path d="M232.809 53.1704C232.681 60.0556 227.086 65.7033 220.313 65.785C213.54 65.8667 208.153 60.3513 208.282 53.4661C208.41 46.5809 214.005 40.9332 220.778 40.8515C227.551 40.7698 232.938 46.2852 232.809 53.1704Z" fill="#22E243"/>
<path d="M222.87 190.244C214.829 190.249 207.995 187.097 203.088 181.112C191.73 167.257 191.565 139.323 202.537 87.7078C203.764 81.938 209.449 78.2589 215.202 79.483C220.971 80.7092 224.654 86.3798 223.428 92.1485C218.379 115.9 211.169 157.281 219.606 167.572C220.207 168.306 220.832 168.909 222.965 168.886C229.51 167.527 247.801 138.188 258.884 86.9898C260.131 81.2247 265.833 77.5664 271.579 78.812C277.342 80.0597 281.004 85.7438 279.757 91.508C277.579 101.57 257.49 189.828 223.222 190.242C223.104 190.243 222.986 190.244 222.87 190.244Z" fill="url(#paint2_radial_13435_134401)"/>
<path d="M292.242 189.408C286.495 189.412 278.162 187.419 270.535 178.116C255.798 160.136 251.114 123.53 258.879 87.0271C260.104 81.2578 265.788 77.5779 271.544 78.804C277.314 80.031 280.994 85.7021 279.766 91.4707C274.509 116.188 275.276 150.209 287.052 164.577C288.362 166.174 290.284 168.081 292.267 168.05C302.331 167.929 317.282 153.811 327.045 135.211C335.781 118.566 336.959 104.813 333.609 99.8305C330.318 94.9366 331.617 88.3013 336.512 85.0102C341.405 81.7206 348.04 83.0172 351.331 87.9123C360.003 100.808 357.993 122.2 345.955 145.137C335.324 165.389 314.953 189.136 292.523 189.406C292.43 189.407 292.336 189.408 292.242 189.408Z" fill="#22E243"/>
<path d="M371.686 151.047C367.403 151.05 363.057 150.867 358.659 150.489C316.062 146.823 300.742 125.654 300.609 107.066C300.506 92.8578 308.83 80.7181 321.321 76.8587C332.677 73.3527 344.453 77.6915 351.33 87.9185C354.621 92.8123 353.323 99.4476 348.428 102.739C343.539 106.029 336.899 104.732 333.608 99.8373C331.974 97.4072 329.955 96.543 327.626 97.2643C324.988 98.0791 321.923 101.095 321.965 106.913C322.048 118.451 337.17 127.203 360.49 129.21C394.125 132.105 421.258 121.479 428.055 109.534C430.03 106.064 430.492 102.732 429.264 100.839C427.827 98.6248 423.626 97.5734 418.287 98.0988C412.456 98.6723 407.194 94.3869 406.615 88.5166C406.038 82.6474 410.329 77.4214 416.198 76.8442C429.909 75.4946 441.2 80.0037 447.178 89.2105C452.854 97.9558 452.644 109.502 446.617 120.096C435.836 139.043 406.039 151.024 371.686 151.047Z" fill="url(#paint3_radial_13435_134401)"/>
<path fill-rule="evenodd" clip-rule="evenodd" d="M443.796 157.489C439.02 159.693 434.387 161.668 429.755 163.302C415.782 168.222 395.568 171.18 387.328 160.221C383.867 155.095 383.253 146.364 385.553 134.971C389.698 114.435 402.853 99.6171 418.287 98.0987C424.157 97.5218 428.448 92.2959 427.871 86.4262C427.29 80.5556 422.04 76.2693 416.198 76.8444C391.36 79.2866 370.633 100.948 364.618 130.745C361.111 148.117 362.797 162.055 369.628 172.172C384.085 192.988 414.384 191.813 437.16 183.257C448.045 180.202 440.471 172.086 447.88 167.216C454.145 163.657 450.394 154.871 443.796 157.489Z" fill="#22E243"/>
<path fill-rule="evenodd" clip-rule="evenodd" d="M459.807 151.059C453.515 151.24 453.108 160.792 459.623 160.935C465.915 160.754 466.322 151.201 459.807 151.059Z" fill="#22E243"/>
<path d="M174.271 372.948C171.281 372.95 168.251 372.752 165.179 372.353C154.146 370.92 145.208 365.759 139.332 357.428C134.193 350.141 129.065 336.846 133.815 314.895C139.715 287.623 161.116 265.051 184.699 261.226C190.537 260.282 196.006 264.235 196.949 270.056C197.893 275.878 193.939 281.363 188.118 282.307C173.11 284.742 158.738 300.694 154.688 319.412C152.26 330.629 153.005 339.759 156.787 345.12C159.159 348.484 162.909 350.522 167.93 351.174C169.887 351.428 171.832 351.554 173.756 351.553C213.363 351.532 245.723 297.781 261.033 205.637C262.001 199.819 267.525 195.886 273.316 196.853C279.135 197.82 283.068 203.32 282.101 209.138C264.674 314.019 225.655 372.913 174.271 372.948Z" fill="url(#paint4_radial_13435_134401)"/>
<path d="M136.92 335.029C133.134 335.031 129.275 334.917 125.351 334.683C81.6708 332.076 59.5847 318.069 59.7088 293.05C59.7741 279.891 66.7985 269.457 78.4968 265.14C90.4753 260.721 104.445 264.123 112.468 273.42C116.321 277.885 115.826 284.628 111.361 288.481C106.893 292.336 100.151 291.837 96.2996 287.373C94.0863 284.806 89.5133 283.84 85.8908 285.177C82.6645 286.367 81.0867 288.977 81.0654 293.157C81.0083 304.758 96.3353 311.556 126.624 313.364C164.388 315.618 190.724 305.242 197.218 293.828C199.236 290.281 199.591 286.622 198.123 284.507C196.627 282.356 192.896 281.531 188.116 282.306C182.304 283.251 176.811 279.297 175.865 273.475C174.922 267.654 178.875 262.169 184.697 261.225C197.974 259.07 209.267 263.115 215.662 272.322C221.89 281.286 221.935 293.574 215.78 304.39C204.937 323.446 174.633 335.004 136.92 335.029Z" fill="url(#paint5_radial_13435_134401)"/>
<path d="M67.0491 373.855C65.5194 373.856 63.9694 373.784 62.3973 373.638C52.721 372.737 44.4337 367.932 38.4314 359.742C25.9379 342.691 23.6357 310.433 32.1198 271.24C34.0713 262.227 52.1964 183.175 87.3622 182.751C87.4027 182.75 87.4451 182.75 87.4856 182.75C93.3279 182.746 98.0969 187.444 98.1688 193.3C98.2389 199.197 93.5166 204.035 87.6191 204.106C80.9309 204.187 63.1434 228.867 52.9927 275.758C46.0136 308.006 47.0337 335.349 55.659 347.118C58.0422 350.371 60.8133 352.04 64.3778 352.372C72.0175 353.085 78.8275 350.474 84.5462 344.605C91.5045 337.464 96.7697 325.663 99.7733 310.478C101.697 300.759 100.397 292.121 96.2993 287.372C92.4464 282.907 92.9416 276.164 97.4065 272.311C101.873 268.456 108.615 268.955 112.468 273.419C120.952 283.25 123.96 298.269 120.723 314.624C113.315 352.075 93.4278 373.837 67.0491 373.855Z" fill="#22E243"/>
<path d="M10.9063 340.5C7.5336 340.503 4.21336 338.91 2.13625 335.935C-1.24136 331.1 -0.0587142 324.443 4.77513 321.066C24.6282 307.201 48.2225 281.86 66.3532 254.933C85.8189 226.02 89.9158 208.672 88.9269 204.177C88.632 204.135 88.1934 204.1 87.6221 204.106C87.5815 204.107 87.5391 204.107 87.4986 204.107C81.6563 204.111 76.8873 199.413 76.8154 193.557C76.7453 187.66 81.4676 182.822 87.3651 182.75C98.1926 182.618 106.126 187.873 109.111 197.162C115.378 216.67 95.4712 250.146 83.0482 268.365C63.4148 297.158 38.7245 323.405 17.0054 338.575C15.1448 339.874 13.0146 340.499 10.9063 340.5Z" fill="url(#paint6_radial_13435_134401)"/>
<path d="M397.462 370.245C394.463 370.247 391.465 370.052 388.458 369.653C377.414 368.19 368.478 363.009 362.612 354.669C357.491 347.387 352.381 334.107 357.122 312.199C363.026 284.926 384.426 262.355 408.006 258.53C413.835 257.585 419.311 261.539 420.256 267.36C421.2 273.182 417.247 278.667 411.425 279.611C396.419 282.046 382.047 297.998 377.995 316.717C375.573 327.91 376.313 337.026 380.081 342.383C382.457 345.761 386.22 347.813 391.265 348.481C424.843 352.932 461.06 319.139 481.326 264.38C483.375 258.849 489.507 256.024 495.048 258.071C500.579 260.118 503.402 266.262 501.356 271.793C478.813 332.703 438.761 370.215 397.462 370.245Z" fill="url(#paint7_radial_13435_134401)"/>
<path d="M252.39 248.378C239.706 248.386 228.524 247.727 219.623 246.081C213.825 245.008 209.991 239.438 211.064 233.639C212.137 227.839 217.726 224.009 223.506 225.08C248.5 229.702 297.283 225.309 344.461 221.058C380.918 217.774 415.373 214.672 441.323 215.246C447.218 215.376 451.892 220.261 451.763 226.157C451.632 232.054 446.806 236.723 440.85 236.597C416.087 236.049 380.641 239.242 346.376 242.329C313.287 245.311 279.43 248.361 252.39 248.378Z" fill="url(#paint8_radial_13435_134401)"/>
<path d="M270.219 371.571C268.328 371.572 266.738 371.432 265.527 371.325C256.94 370.569 249.881 366.701 245.112 360.138C230.44 339.945 240.06 298.153 252.238 245.243C255.259 232.118 258.384 218.546 261.105 205.241C262.288 199.463 267.918 195.737 273.707 196.919C279.484 198.101 283.21 203.743 282.029 209.521C279.255 223.082 276.101 236.783 273.052 250.034C263.855 289.981 253.434 335.258 262.39 347.584C263.207 348.708 264.378 349.784 267.401 350.05C293.276 352.329 304.999 297.822 321.226 222.384C322.489 216.512 323.782 210.496 325.118 204.344C326.368 198.58 332.07 194.925 337.817 196.174C343.581 197.425 347.239 203.111 345.988 208.874C344.655 215.012 343.365 221.016 342.105 226.875C332.735 270.439 325.334 304.849 315.373 329.533C300.141 367.272 280.632 371.563 270.219 371.571Z" fill="url(#paint9_radial_13435_134401)"/>
<path d="M471.88 368.763C471.128 368.764 470.367 368.685 469.603 368.519C463.84 367.272 460.178 361.587 461.425 355.823L480.904 265.831C482.151 260.066 487.844 256.408 493.598 257.653C499.362 258.901 503.024 264.585 501.776 270.349L482.298 360.341C481.216 365.342 476.795 368.76 471.88 368.763Z" fill="#22E243"/>
<path d="M366.432 331.573C360.842 331.576 356.14 327.23 355.779 321.572C355.405 315.687 359.872 310.612 365.759 310.237C394.705 308.394 414.668 301.43 420.528 291.133C422.547 287.585 422.902 283.926 421.432 281.812C419.938 279.659 416.194 278.837 411.425 279.61C405.606 280.556 400.12 276.601 399.175 270.78C398.231 264.958 402.184 259.473 408.006 258.529C421.294 256.374 432.578 260.419 438.973 269.627C445.199 278.592 445.244 290.88 439.09 301.695C429.189 319.095 404.973 329.14 367.114 331.551C366.887 331.565 366.659 331.573 366.432 331.573Z" fill="url(#paint10_radial_13435_134401)"/>
<path d="M330.14 370.53C318.487 370.538 311.734 365.173 308.112 360.638C292.847 341.534 302.642 300.527 315.046 248.61C318.518 234.075 322.109 219.046 325.089 204.471C326.273 198.693 331.915 194.967 337.692 196.149C343.469 197.331 347.195 202.973 346.014 208.751C342.962 223.668 339.33 238.87 335.817 253.572C327.007 290.452 316.042 336.351 324.795 347.306C325.292 347.928 326.315 349.211 330.32 349.172C339.046 349.067 351.61 333.896 356.168 317.956C357.79 312.285 363.704 309.006 369.372 310.626C375.042 312.248 378.325 318.159 376.703 323.83C370.281 346.275 351.935 370.27 330.577 370.528C330.431 370.529 330.286 370.53 330.14 370.53Z" fill="url(#paint11_radial_13435_134401)"/>
<path fill-rule="evenodd" clip-rule="evenodd" d="M569.455 256.215C563.181 256.396 562.775 265.92 569.271 266.062C575.546 265.88 575.951 256.357 569.455 256.215Z" fill="url(#paint12_radial_13435_134401)"/>
<path fill-rule="evenodd" clip-rule="evenodd" d="M557.459 258.574C556.324 257.642 554.698 257.131 552.949 257.363C546.704 258.071 540.603 259.694 534.855 261.98C502.716 274.526 475.121 310.229 461.632 355.022C459.508 361.728 464.872 368.86 471.875 368.756C476.473 368.753 480.716 365.757 482.097 361.126C493.486 323.076 516.917 292.189 542.394 281.868C544.29 281.265 546.408 280.315 547.231 278.576C547.942 277.406 548.33 275.935 548.551 274.389C548.953 271.427 550.744 268.741 553.803 267.995C558.223 267.2 561.376 261.853 557.459 258.574Z" fill="url(#paint13_radial_13435_134401)"/>
<defs>
<radialGradient id="paint0_radial_13435_134401" cx="0" cy="0" r="1" gradientUnits="userSpaceOnUse" gradientTransform="translate(225.214 101.412) rotate(-0.036584) scale(93.5594 93.5615)">
<stop stop-color="#22E243" stop-opacity="0.5"/>
<stop offset="0.71251" stop-color="#22E243" stop-opacity="0.77439"/>
<stop offset="1" stop-color="#22E243"/>
</radialGradient>
<radialGradient id="paint1_radial_13435_134401" cx="0" cy="0" r="1" gradientUnits="userSpaceOnUse" gradientTransform="translate(77.349 164.961) rotate(-0.036584) scale(139.366 139.369)">
<stop stop-color="#22E243" stop-opacity="0.5"/>
<stop offset="1" stop-color="#22E243"/>
</radialGradient>
<radialGradient id="paint2_radial_13435_134401" cx="0" cy="0" r="1" gradientUnits="userSpaceOnUse" gradientTransform="translate(280.187 123.273) rotate(-0.036584) scale(60.7308 60.7322)">
<stop stop-color="#22E243" stop-opacity="0.5"/>
<stop offset="0.73783" stop-color="#22E243" stop-opacity="0.77439"/>
<stop offset="1" stop-color="#22E243"/>
</radialGradient>
<radialGradient id="paint3_radial_13435_134401" cx="0" cy="0" r="1" gradientUnits="userSpaceOnUse" gradientTransform="translate(364.324 151.833) rotate(-0.036584) scale(60.0115 60.0128)">
<stop stop-color="#22E243" stop-opacity="0.5"/>
<stop offset="0.73783" stop-color="#22E243" stop-opacity="0.77439"/>
<stop offset="1" stop-color="#22E243"/>
</radialGradient>
<radialGradient id="paint4_radial_13435_134401" cx="0" cy="0" r="1" gradientUnits="userSpaceOnUse" gradientTransform="translate(288.322 295.357) rotate(-0.036584) scale(102.1 102.102)">
<stop stop-color="#22E243" stop-opacity="0.5"/>
<stop offset="0.73783" stop-color="#22E243" stop-opacity="0.77439"/>
<stop offset="1" stop-color="#22E243"/>
</radialGradient>
<radialGradient id="paint5_radial_13435_134401" cx="0" cy="0" r="1" gradientUnits="userSpaceOnUse" gradientTransform="translate(127.497 356.677) rotate(-0.036584) scale(79.6993 79.7011)">
<stop stop-color="#22E243" stop-opacity="0.5"/>
<stop offset="0.73783" stop-color="#22E243" stop-opacity="0.77439"/>
<stop offset="1" stop-color="#22E243"/>
</radialGradient>
<radialGradient id="paint6_radial_13435_134401" cx="0" cy="0" r="1" gradientUnits="userSpaceOnUse" gradientTransform="translate(-1.64683 342.011) rotate(-0.036584) scale(142.399 142.402)">
<stop stop-color="#22E243" stop-opacity="0.5"/>
<stop offset="0.73783" stop-color="#22E243" stop-opacity="0.77439"/>
<stop offset="1" stop-color="#22E243"/>
</radialGradient>
<radialGradient id="paint7_radial_13435_134401" cx="0" cy="0" r="1" gradientUnits="userSpaceOnUse" gradientTransform="translate(501.035 322.028) rotate(-0.036584) scale(83.7453 83.7472)">
<stop stop-color="#22E243" stop-opacity="0.5"/>
<stop offset="0.73783" stop-color="#22E243" stop-opacity="0.77439"/>
<stop offset="1" stop-color="#22E243"/>
</radialGradient>
<radialGradient id="paint8_radial_13435_134401" cx="0" cy="0" r="1" gradientUnits="userSpaceOnUse" gradientTransform="translate(314.62 194.345) rotate(-0.036584) scale(95.822 95.8242)">
<stop stop-color="#22E243" stop-opacity="0.5"/>
<stop offset="0.73783" stop-color="#22E243" stop-opacity="0.77439"/>
<stop offset="1" stop-color="#22E243"/>
</radialGradient>
<radialGradient id="paint9_radial_13435_134401" cx="0" cy="0" r="1" gradientUnits="userSpaceOnUse" gradientTransform="translate(345.524 306.038) rotate(-0.036584) scale(85.7397 85.7417)">
<stop stop-color="#22E243" stop-opacity="0.5"/>
<stop offset="0.73783" stop-color="#22E243" stop-opacity="0.77439"/>
<stop offset="1" stop-color="#22E243"/>
</radialGradient>
<radialGradient id="paint10_radial_13435_134401" cx="0" cy="0" r="1" gradientUnits="userSpaceOnUse" gradientTransform="translate(393.365 351.142) rotate(-0.036584) scale(77.1366 77.1383)">
<stop stop-color="#22E243" stop-opacity="0.5"/>
<stop offset="0.73783" stop-color="#22E243" stop-opacity="0.77439"/>
<stop offset="1" stop-color="#22E243"/>
</radialGradient>
<radialGradient id="paint11_radial_13435_134401" cx="0" cy="0" r="1" gradientUnits="userSpaceOnUse" gradientTransform="translate(393.364 351.141) rotate(-0.036584) scale(77.1365 77.1383)">
<stop stop-color="#22E243" stop-opacity="0.5"/>
<stop offset="0.73783" stop-color="#22E243" stop-opacity="0.77439"/>
<stop offset="1" stop-color="#22E243"/>
</radialGradient>
<radialGradient id="paint12_radial_13435_134401" cx="0" cy="0" r="1" gradientUnits="userSpaceOnUse" gradientTransform="translate(479.639 254.566) rotate(-0.036584) scale(64.5832 64.5847)">
<stop stop-color="#22E243" stop-opacity="0.5"/>
<stop offset="0.73783" stop-color="#22E243" stop-opacity="0.77439"/>
<stop offset="1" stop-color="#22E243"/>
</radialGradient>
<radialGradient id="paint13_radial_13435_134401" cx="0" cy="0" r="1" gradientUnits="userSpaceOnUse" gradientTransform="translate(478.637 254.564) rotate(-0.036584) scale(65.2938 65.2953)">
<stop stop-color="#22E243" stop-opacity="0.5"/>
<stop offset="0.73783" stop-color="#22E243" stop-opacity="0.77439"/>
<stop offset="1" stop-color="#22E243"/>
</radialGradient>
</defs>
</svg>
