<svg width="375" height="133" viewBox="0 0 375 133" fill="none" xmlns="http://www.w3.org/2000/svg">
<g id="Property 1=EverydayExpress">
<g id="Group 48096319">
<path id="body" fill-rule="evenodd" clip-rule="evenodd" d="M187 23C162.699 23 143 42.6995 143 67.0002C143 91.3005 162.699 111 187 111C211.3 111 231 91.3005 231 67.0002C231 42.6995 211.3 23 187 23Z" fill="#222222"/>
<path id="face" fill-rule="evenodd" clip-rule="evenodd" d="M225.875 59.5957C225.875 73.4766 213.11 74.3933 195.266 74.3933C177.422 74.3933 165.768 72.9528 165.768 59.5957C165.768 46.2385 177.03 34.9766 195.266 34.9766C213.502 34.9766 225.875 45.7147 225.875 59.5957Z" fill="white"/>
<path id="Vector 1" d="M200.12 57.0952C196.969 53.3006 192.87 55.5141 191.215 57.0952" stroke="#222222" stroke-width="3" stroke-linecap="round"/>
<path id="Vector 2" d="M205.095 57.0952C208.246 53.3006 212.345 55.5141 214 57.0952" stroke="#222222" stroke-width="3" stroke-linecap="round"/>
</g>
<circle id="Ellipse 322" cx="10.5" cy="10.5" r="10.5" transform="matrix(-0.983694 -0.179851 -0.179851 0.983694 255 70.7769)" fill="#222222"/>
<g id="Rectangle 18213">
<path d="M144.065 55.7217C135.647 37.0298 125.5 27 122.924 30.6958C120.616 34.0065 143.203 77.482 147.935 86.506C148.425 87.4405 149.585 87.8341 150.358 87.1154C154.619 83.1522 151.691 72.654 144.065 55.7217Z" fill="white"/>
<path d="M122.924 30.6958L123.744 31.2677C123.795 31.1944 123.782 31.1661 123.769 31.2584C123.758 31.3432 123.753 31.4827 123.769 31.69C123.802 32.1058 123.912 32.6807 124.108 33.4168C124.499 34.8825 125.193 36.8443 126.121 39.1735C127.976 43.8238 130.719 49.8263 133.691 56.0261C139.633 68.4201 146.456 81.5322 148.82 86.0416L147.935 86.506L147.049 86.9704C144.682 82.4558 137.845 69.3181 131.887 56.8907C128.91 50.6798 126.143 44.6287 124.264 39.9142C123.325 37.561 122.597 35.5126 122.175 33.9318C121.966 33.1446 121.822 32.4372 121.775 31.848C121.752 31.5528 121.75 31.2592 121.788 30.9848C121.825 30.7178 121.908 30.4041 122.103 30.1239L122.924 30.6958ZM150.358 87.1154L149.677 86.3832C151.372 84.8068 151.841 81.7165 150.692 76.497C149.563 71.368 146.962 64.59 143.153 56.1323L144.065 55.7217L144.977 55.3111C148.793 63.7858 151.469 70.723 152.645 76.067C153.802 81.3205 153.605 85.4609 151.039 87.8476L150.358 87.1154ZM144.065 55.7217L143.153 56.1323C138.973 46.8515 134.383 39.7652 130.558 35.4793C128.633 33.3233 126.962 31.9437 125.688 31.3153C125.051 31.0011 124.597 30.917 124.306 30.9402C124.064 30.9595 123.895 31.0509 123.744 31.2677L122.924 30.6958L122.103 30.1239C122.596 29.4168 123.308 29.0132 124.147 28.9465C124.936 28.8838 125.764 29.123 126.572 29.5215C128.188 30.3183 130.063 31.9215 132.05 34.1475C136.046 38.6255 140.738 45.9 144.977 55.3111L144.065 55.7217ZM147.935 86.506L148.82 86.0416C148.945 86.2792 149.142 86.4208 149.31 86.4676C149.454 86.5081 149.569 86.4834 149.677 86.3832L150.358 87.1154L151.039 87.8476C150.374 88.4661 149.522 88.6039 148.771 88.3936C148.042 88.1897 147.414 87.6672 147.049 86.9704L147.935 86.506Z" fill="#222222"/>
</g>
<path id="Vector 979" d="M168.182 55.7156L168.612 75.1048L172.362 93.8287L150.998 96.3899L140.373 95.0815L142.043 80.4269L133.864 62.5899L143.276 57.8406L168.182 55.7156Z" fill="white" stroke="#222222" stroke-width="2" stroke-linecap="round" stroke-linejoin="round"/>
<path id="Vector 980" d="M144 62L148.5 78V91.5M164 75H156.5L151 78" stroke="#222222" stroke-width="2" stroke-linecap="round" stroke-linejoin="round"/>
<path id="Vector 981" d="M159.002 54.4997C160.502 45.9997 150.002 48.4997 150.502 55.4997" stroke="white" stroke-width="2" stroke-linecap="round" stroke-linejoin="round"/>
<path id="Vector 982" d="M142.5 52.5C139.7 52.5 137.333 53.8333 136.5 54.5" stroke="#222222" stroke-width="2" stroke-linecap="round" stroke-linejoin="round"/>
<path id="Vector 983" d="M138 45C135.667 45 133.694 46.3333 133 47" stroke="#222222" stroke-width="2" stroke-linecap="round" stroke-linejoin="round"/>
<path id="Vector 984" d="M133 37.5934C131.154 37.3165 129.396 38.401 128.748 38.9779" stroke="#222222" stroke-width="2" stroke-linecap="round" stroke-linejoin="round"/>
<g id="Group 48096352">
<path id="Rectangle 18214" d="M258.418 71.0503L241.688 68.0344L239.398 92.0085L252.192 94.3148L258.418 71.0503Z" fill="white" stroke="#222222" stroke-width="2" stroke-linejoin="round"/>
<path id="Rectangle 18215" d="M260.289 66.3071L241.59 62.9364L240.703 67.8571L259.402 71.2278L260.289 66.3071Z" fill="white" stroke="#222222" stroke-width="2" stroke-linejoin="round"/>
<path id="Rectangle 18216" d="M257.062 61.6611L246.237 59.7097L245.527 63.6462L256.353 65.5977L257.062 61.6611Z" fill="white" stroke="#222222" stroke-width="2" stroke-linejoin="round"/>
</g>
<path id="Vector 985" d="M255.999 56C262.499 49.5 249.499 46.5 255.999 40M248.999 56C252.599 52.4 250.499 48.1667 248.999 46.5" stroke="#222222" stroke-width="2" stroke-linecap="round" stroke-linejoin="round"/>
<circle id="Ellipse 323" cx="10.5" cy="10.5" r="10.5" transform="matrix(-0.983694 -0.179851 -0.179851 0.983694 155 70.7769)" fill="#222222"/>
</g>
</svg>
