<svg width="256" height="256" viewBox="0 0 256 256" fill="none" xmlns="http://www.w3.org/2000/svg">
<path d="M80.9785 33.792C80.9748 34.2446 80.9582 34.6941 80.9307 35.1406L57.4707 58.5342C57.0238 58.5604 56.574 58.5766 56.1211 58.5791L80.9785 33.792Z" fill="#D9D9D9"/>
<path d="M80.6533 29.5332C80.7149 29.9113 80.7671 30.2922 80.8115 30.6758L53.0049 58.4033C52.6216 58.3578 52.241 58.3038 51.8633 58.2412L80.6533 29.5332Z" fill="#D9D9D9"/>
<path d="M80.4004 38.9531C80.2709 39.5443 80.1207 40.1275 79.9502 40.7021L63.0342 57.5703C62.4592 57.7391 61.8756 57.8869 61.2842 58.0146L80.4004 38.9531Z" fill="#D9D9D9"/>
<path d="M79.7578 25.8418C79.8652 26.172 79.9667 26.5048 80.0605 26.8408L49.1719 57.6416C48.8365 57.5469 48.5043 57.4442 48.1748 57.3359L79.7578 25.8418Z" fill="#D9D9D9"/>
<path d="M78.4346 22.5781C78.5783 22.8708 78.7162 23.1668 78.8486 23.4658L45.8018 56.4189C45.503 56.2856 45.2075 56.1466 44.915 56.002L78.4346 22.5781Z" fill="#D9D9D9"/>
<path d="M77.3232 46.6045C75.2373 50.0154 72.3582 52.8881 68.9404 54.9639L77.3232 46.6045Z" fill="#D9D9D9"/>
<path d="M76.7549 19.6689C76.9299 19.9297 77.0994 20.1943 77.2646 20.4619L42.8018 54.8271C42.5346 54.6611 42.2701 54.4912 42.0098 54.3154L76.7549 19.6689Z" fill="#D9D9D9"/>
<path d="M74.7578 17.0771C74.9613 17.3085 75.1605 17.5435 75.3555 17.7822L40.127 52.9102C39.8888 52.7146 39.6554 52.5136 39.4248 52.3096L74.7578 17.0771Z" fill="#D9D9D9"/>
<path d="M72.4619 14.7832C72.693 14.986 72.9201 15.1932 73.1436 15.4043L37.7559 50.6914C37.5454 50.4673 37.3389 50.2395 37.1367 50.0078L72.4619 14.7832Z" fill="#D9D9D9"/>
<path d="M69.8652 12.7881C70.1248 12.9618 70.3802 13.1412 70.6328 13.3242L35.6826 48.1748C35.5003 47.9217 35.3223 47.6653 35.1494 47.4053L69.8652 12.7881Z" fill="#D9D9D9"/>
<path d="M66.9512 11.1104C67.2413 11.2522 67.5279 11.4001 67.8115 11.5527L33.9199 45.3486C33.7681 45.0646 33.6205 44.7778 33.4795 44.4873L66.9512 11.1104Z" fill="#D9D9D9"/>
<path d="M63.6787 9.79004C64.0048 9.89545 64.3284 10.0057 64.6484 10.124L32.5 42.1816C32.3826 41.8613 32.2734 41.5373 32.1689 41.2109L63.6787 9.79004Z" fill="#D9D9D9"/>
<path d="M59.9746 8.89941C60.3448 8.95885 60.7125 9.02508 61.0771 9.10059L31.4863 38.6084C31.4118 38.2435 31.3465 37.8754 31.2881 37.5049L59.9746 8.89941Z" fill="#D9D9D9"/>
<path d="M55.9814 8.58105C56.3164 8.58105 56.6497 8.58851 56.9814 8.60156L31 34.5098C30.9887 34.2016 30.9814 33.892 30.9814 33.5811C30.9814 33.4618 30.9837 33.3425 30.9854 33.2236L55.6943 8.58398C55.7899 8.58291 55.8856 8.58105 55.9814 8.58105Z" fill="#D9D9D9"/>
<path d="M31.292 29.6348C31.378 29.0923 31.4812 28.5556 31.6016 28.0254L50.4951 9.18555C51.0261 9.06666 51.5633 8.9644 52.1064 8.87988L31.292 29.6348Z" fill="#D9D9D9"/>
<path d="M33.3047 23.0439C33.7666 22.0516 34.2909 21.0942 34.874 20.1777L42.6377 12.4375C43.5562 11.8566 44.5146 11.3333 45.5088 10.874L33.3047 23.0439Z" fill="#D9D9D9"/>
<path d="M223.504 78.3696C223.491 78.8264 223.468 79.2811 223.439 79.7339L185.948 117.12C185.495 117.147 185.039 117.168 184.582 117.18L223.504 78.3696Z" fill="#D9D9D9"/>
<path d="M223.387 73.9028C223.42 74.3071 223.449 74.713 223.47 75.1206L181.336 117.134C180.928 117.112 180.522 117.083 180.118 117.049L223.387 73.9028Z" fill="#D9D9D9"/>
<path d="M223.039 83.4165C222.956 83.9471 222.862 84.4741 222.759 84.9976L191.214 116.453C190.69 116.555 190.162 116.65 189.631 116.731L223.039 83.4165Z" fill="#D9D9D9"/>
<path d="M222.848 69.8569C222.916 70.2251 222.98 70.5947 223.038 70.9663L177.183 116.693C176.811 116.634 176.441 116.568 176.073 116.499L222.848 69.8569Z" fill="#D9D9D9"/>
<path d="M221.975 66.144C222.072 66.4831 222.165 66.8238 222.254 67.1665L173.385 115.897C173.042 115.808 172.702 115.713 172.363 115.615L221.975 66.144Z" fill="#D9D9D9"/>
<path d="M221.617 89.4194C221.401 90.0939 221.167 90.7601 220.916 91.4185L197.64 114.628C196.98 114.877 196.313 115.11 195.638 115.325L221.617 89.4194Z" fill="#D9D9D9"/>
<path d="M220.818 62.7124C220.94 63.0266 221.059 63.3427 221.173 63.6606L169.881 114.807C169.563 114.692 169.247 114.573 168.934 114.45L220.818 62.7124Z" fill="#D9D9D9"/>
<path d="M219.416 59.5278C219.56 59.8192 219.7 60.1124 219.837 60.4077L166.633 113.461C166.338 113.324 166.045 113.182 165.754 113.038L219.416 59.5278Z" fill="#D9D9D9"/>
<path d="M217.795 56.561C217.959 56.8324 218.119 57.1059 218.276 57.3813L163.609 111.893C163.334 111.735 163.061 111.573 162.79 111.409L217.795 56.561Z" fill="#D9D9D9"/>
<path d="M217.814 97.7944C216.933 99.2587 215.961 100.662 214.905 101.997L208.227 108.656C206.893 109.705 205.489 110.668 204.026 111.543L217.814 97.7944Z" fill="#D9D9D9"/>
<path d="M215.968 53.7993C216.15 54.0517 216.329 54.3063 216.506 54.563L160.797 110.113C160.541 109.936 160.287 109.756 160.035 109.573L215.968 53.7993Z" fill="#D9D9D9"/>
<path d="M213.947 51.23C214.147 51.4642 214.345 51.7001 214.54 51.939L158.179 108.141C157.94 107.946 157.704 107.747 157.471 107.546L213.947 51.23Z" fill="#D9D9D9"/>
<path d="M211.74 48.8462C211.958 49.0632 212.174 49.2825 212.387 49.5044L155.75 105.979C155.529 105.766 155.311 105.55 155.095 105.332L211.74 48.8462Z" fill="#D9D9D9"/>
<path d="M209.347 46.6499C209.582 46.8488 209.814 47.0512 210.044 47.2554L153.507 103.631C153.303 103.401 153.102 103.168 152.904 102.932L209.347 46.6499Z" fill="#D9D9D9"/>
<path d="M206.767 44.6392C207.019 44.82 207.27 45.0034 207.519 45.1899L151.449 101.1C151.263 100.851 151.08 100.6 150.9 100.347L206.767 44.6392Z" fill="#D9D9D9"/>
<path d="M203.99 42.8237C204.262 42.9857 204.531 43.1507 204.798 43.3188L149.587 98.3735C149.42 98.106 149.255 97.8367 149.094 97.5649L203.99 42.8237Z" fill="#D9D9D9"/>
<path d="M201.011 41.2114C201.302 41.3532 201.591 41.4984 201.878 41.647L147.922 95.4497C147.774 95.1622 147.629 94.873 147.488 94.5815L201.011 41.2114Z" fill="#D9D9D9"/>
<path d="M197.806 39.8228C198.119 39.9425 198.43 40.0665 198.739 40.1938L146.479 92.3062C146.352 91.9968 146.229 91.6857 146.11 91.3726L197.806 39.8228Z" fill="#D9D9D9"/>
<path d="M194.355 38.6802C194.693 38.7749 195.029 38.8727 195.363 38.9761L145.271 88.9263C145.169 88.592 145.072 88.2554 144.979 87.9175L194.355 38.6802Z" fill="#D9D9D9"/>
<path d="M190.619 37.8228C190.985 37.8882 191.349 37.9593 191.711 38.0347L144.338 85.2729C144.263 84.9099 144.195 84.5448 144.131 84.1782L190.619 37.8228Z" fill="#D9D9D9"/>
<path d="M186.539 37.3071C186.94 37.337 187.339 37.3729 187.736 37.4146L143.729 81.2964C143.689 80.8984 143.656 80.4985 143.627 80.0972L186.539 37.3071Z" fill="#D9D9D9"/>
<path d="M143.526 76.9165C143.529 76.4707 143.539 76.0267 143.557 75.5845L182.025 37.2251C182.468 37.2088 182.912 37.1995 183.358 37.1978L143.526 76.9165Z" fill="#D9D9D9"/>
<path d="M143.857 72.0015C143.924 71.4881 144.002 70.9782 144.088 70.4712L176.91 37.7417C177.418 37.6572 177.929 37.5793 178.443 37.5142L143.857 72.0015Z" fill="#D9D9D9"/>
<path d="M145.042 66.2368C145.223 65.6014 145.418 64.9722 145.629 64.3501L170.784 39.2661C171.407 39.0571 172.036 38.8638 172.672 38.6851L145.042 66.2368Z" fill="#D9D9D9"/>
<path d="M148.098 58.605C148.66 57.5363 149.268 56.4957 149.921 55.4868L161.914 43.5278C162.924 42.8783 163.966 42.2747 165.035 41.7163L148.098 58.605Z" fill="#D9D9D9"/>
<path fill-rule="evenodd" clip-rule="evenodd" d="M192.125 147.787C192.125 145.634 191.27 143.568 189.747 142.045C188.223 140.522 186.158 139.667 184.005 139.667H53.363C51.2102 139.667 49.1449 140.522 47.6221 142.045C46.1001 143.568 45.2441 145.634 45.2441 147.787V147.787H192.125V147.787Z" fill="#222222"/>
<path fill-rule="evenodd" clip-rule="evenodd" d="M192.125 147.787C192.125 145.634 191.27 143.568 189.747 142.045C188.223 140.522 186.158 139.667 184.005 139.667H53.363C51.2102 139.667 49.1449 140.522 47.6221 142.045C46.1001 143.568 45.2441 145.634 45.2441 147.787V147.787H192.125V147.787Z" stroke="#222222" stroke-width="2" stroke-linecap="round" stroke-linejoin="round"/>
<path fill-rule="evenodd" clip-rule="evenodd" d="M135.203 92.2454C154.496 92.2454 170.158 107.91 170.158 127.204C170.158 146.497 154.496 162.162 135.203 162.162C115.911 162.162 100.248 146.497 100.248 127.204C100.248 107.91 115.911 92.2454 135.203 92.2454Z" fill="white"/>
<path fill-rule="evenodd" clip-rule="evenodd" d="M135.203 92.2454C154.496 92.2454 170.158 107.91 170.158 127.204C170.158 146.497 154.496 162.162 135.203 162.162C115.911 162.162 100.248 146.497 100.248 127.204C100.248 107.91 115.911 92.2454 135.203 92.2454Z" stroke="#222222" stroke-width="2" stroke-linecap="round" stroke-linejoin="round"/>
<path fill-rule="evenodd" clip-rule="evenodd" d="M192.125 147.786H45.2441V226.917C45.2441 237.706 53.99 246.453 64.7785 246.453H172.59C183.379 246.453 192.125 237.706 192.125 226.917V147.786Z" fill="white"/>
<path fill-rule="evenodd" clip-rule="evenodd" d="M192.125 147.786H45.2441V226.917C45.2441 237.706 53.99 246.453 64.7785 246.453H172.59C183.379 246.453 192.125 237.706 192.125 226.917V147.786Z" stroke="#222222" stroke-width="2" stroke-linecap="round" stroke-linejoin="round"/>
<path fill-rule="evenodd" clip-rule="evenodd" d="M202.967 79.2953C192.052 79.3641 183.202 88.2139 183.135 99.1292V99.2582C183.135 88.2405 174.189 79.2953 163.171 79.2953C174.189 79.2953 183.135 70.3493 183.135 59.3308V59.4598C183.202 70.4189 192.123 79.2953 203.096 79.2953H202.967Z" fill="#222222"/>
<path fill-rule="evenodd" clip-rule="evenodd" d="M202.967 79.2953C192.052 79.3641 183.202 88.2139 183.135 99.1292V99.2582C183.135 88.2405 174.189 79.2953 163.171 79.2953C174.189 79.2953 183.135 70.3493 183.135 59.3308V59.4598C183.202 70.4189 192.123 79.2953 203.096 79.2953H202.967Z" stroke="#222222" stroke-width="2" stroke-linecap="round" stroke-linejoin="round"/>
<path fill-rule="evenodd" clip-rule="evenodd" d="M128.794 46.6637C123.982 46.6942 120.081 50.5953 120.048 55.4088V55.4651C120.048 50.607 116.106 46.6637 111.248 46.6637C116.106 46.6637 120.048 42.7196 120.048 37.8616V37.9186C120.081 42.7501 124.011 46.6637 128.848 46.6637H128.794Z" fill="#222222"/>
<path fill-rule="evenodd" clip-rule="evenodd" d="M128.794 46.6637C123.982 46.6942 120.081 50.5953 120.048 55.4088V55.4651C120.048 50.607 116.106 46.6637 111.248 46.6637C116.106 46.6637 120.048 42.7196 120.048 37.8616V37.9186C120.081 42.7501 124.011 46.6637 128.848 46.6637H128.794Z" stroke="#222222" stroke-width="2" stroke-linecap="round" stroke-linejoin="round"/>
<path fill-rule="evenodd" clip-rule="evenodd" d="M106.499 86.2527C99.3882 86.298 93.623 92.0629 93.5785 99.1748V99.2585C93.5785 92.0809 87.7508 86.2527 80.5723 86.2527C87.7508 86.2527 93.5785 80.4237 93.5785 73.2461V73.3297C93.6238 80.4698 99.4335 86.2527 106.584 86.2527H106.499Z" fill="#222222"/>
<path fill-rule="evenodd" clip-rule="evenodd" d="M106.499 86.2527C99.3882 86.298 93.623 92.0629 93.5785 99.1748V99.2585C93.5785 92.0809 87.7508 86.2527 80.5723 86.2527C87.7508 86.2527 93.5785 80.4237 93.5785 73.2461V73.3297C93.6238 80.4698 99.4335 86.2527 106.584 86.2527H106.499Z" stroke="#222222" stroke-width="2" stroke-linecap="round" stroke-linejoin="round"/>
<path fill-rule="evenodd" clip-rule="evenodd" d="M192.125 147.786H45.2441C45.2441 149.906 46.0868 151.939 47.5854 153.438C49.0839 154.936 51.1164 155.779 53.2364 155.779H184.131C186.251 155.779 188.284 154.936 189.782 153.438C191.283 151.939 192.125 149.906 192.125 147.786Z" fill="white"/>
<path fill-rule="evenodd" clip-rule="evenodd" d="M192.125 147.786H45.2441C45.2441 149.906 46.0868 151.939 47.5854 153.438C49.0839 154.936 51.1164 155.779 53.2364 155.779H184.131C186.251 155.779 188.284 154.936 189.782 153.438C191.283 151.939 192.125 149.906 192.125 147.786Z" stroke="#222222" stroke-width="2" stroke-linecap="round" stroke-linejoin="round"/>
<path fill-rule="evenodd" clip-rule="evenodd" d="M192.126 179.398H160.011C152.77 179.398 146.896 185.27 146.896 192.512V192.513C146.896 199.756 152.77 205.627 160.011 205.627H192.126V179.398Z" fill="white"/>
<path fill-rule="evenodd" clip-rule="evenodd" d="M192.126 179.398H160.011C152.77 179.398 146.896 185.27 146.896 192.512V192.513C146.896 199.756 152.77 205.627 160.011 205.627H192.126V179.398Z" stroke="#222222" stroke-width="2" stroke-linecap="round" stroke-linejoin="round"/>
<path fill-rule="evenodd" clip-rule="evenodd" d="M160.308 187.904C162.851 187.904 164.913 189.969 164.913 192.512C164.913 195.054 162.851 197.12 160.308 197.12C157.764 197.12 155.698 195.054 155.698 192.512C155.698 189.969 157.764 187.904 160.308 187.904Z" fill="white"/>
<path d="M135.204 127.204C131.67 127.204 128.804 124.336 128.804 120.803C128.804 117.27 131.67 114.402 135.204 114.402C138.735 114.402 141.605 117.27 141.605 120.803" stroke="#222222" stroke-width="2" stroke-linecap="round" stroke-linejoin="round"/>
<path d="M128.804 133.606C128.804 137.139 131.67 140.007 135.204 140.007C138.735 140.007 141.604 137.139 141.604 133.606C141.604 130.073 138.735 127.205 135.204 127.205" stroke="#222222" stroke-width="2" stroke-linecap="round" stroke-linejoin="round"/>
<path d="M135.203 114.402V110.937" stroke="#222222" stroke-width="2" stroke-linecap="round" stroke-linejoin="round"/>
<path fill-rule="evenodd" clip-rule="evenodd" d="M160.308 187.904C162.851 187.904 164.913 189.969 164.913 192.512C164.913 195.054 162.851 197.12 160.308 197.12C157.764 197.12 155.698 195.054 155.698 192.512C155.698 189.969 157.764 187.904 160.308 187.904Z" stroke="#222222" stroke-width="2" stroke-linecap="round" stroke-linejoin="round"/>
<path d="M135.203 143.47V140.004" stroke="#222222" stroke-width="2" stroke-linecap="round" stroke-linejoin="round"/>
</svg>
