<svg width="135" height="24" viewBox="0 0 135 24" fill="none" xmlns="http://www.w3.org/2000/svg">
<g clip-path="url(#clip0_11917_14273)">
<path d="M12.0371 0.523438C12.769 0.523444 13.0032 0.559707 13.3418 0.619141C14.0023 0.734029 14.4662 1.20088 14.4014 1.82031C14.3533 2.27659 14.0267 2.64095 13.5996 2.77832C13.0276 2.95904 11.4777 2.62678 10.6865 3.23633C10.299 3.53517 10.1339 3.85278 9.96875 4.25684C9.80362 4.66095 9.65998 5.24949 8.5791 5.81348C6.24114 7.03466 4.68555 9.32257 4.68555 12.002C4.68564 15.8735 7.97614 19.0098 12.0361 19.0098C15.6892 19.0097 18.7365 16.4693 19.29 13.1367C19.3313 12.8887 19.3387 12.6649 19.2891 12.4746C19.188 12.089 19.0314 11.8581 18.376 11.3945C17.5293 10.7952 16.8497 9.92907 16.8496 8.81641C16.8496 7.10996 18.3002 5.72754 20.0889 5.72754C21.3172 5.72759 22.2795 6.45932 22.7715 7.16309C23.1354 7.68366 23.4931 8.36493 23.707 9.16016C23.9134 9.92661 24.0742 10.792 24.0742 12.002C24.0741 18.3407 18.6852 23.4804 12.0371 23.4805C5.38894 23.4805 8.86096e-05 18.3408 0 12.002C0 5.66303 5.38888 0.523438 12.0371 0.523438ZM98.624 10.0176C99.4879 10.0176 100.196 10.1501 100.748 10.4141C101.312 10.6781 101.732 11.0802 102.008 11.6201C102.284 12.1481 102.422 12.832 102.422 13.6719V17.9922C102.422 18.3641 102.331 18.6525 102.151 18.8564C101.971 19.0481 101.714 19.1435 101.378 19.1436C101.042 19.1436 100.778 19.0482 100.586 18.8564C100.406 18.6525 100.315 18.3641 100.315 17.9922V17.6123C100.225 17.8357 100.106 18.0403 99.9561 18.2256C99.7161 18.5255 99.4099 18.7597 99.0381 18.9277C98.6661 19.0957 98.2397 19.1797 97.7598 19.1797C97.1239 19.1797 96.5537 19.0602 96.0498 18.8203C95.5578 18.5683 95.1679 18.2315 94.8799 17.8115C94.604 17.3916 94.4658 16.9175 94.4658 16.3896C94.4659 15.7419 94.6339 15.2323 94.9697 14.8604C95.3057 14.4764 95.8516 14.2002 96.6074 14.0322C97.3634 13.8642 98.3775 13.7803 99.6494 13.7803H100.279V13.4023C100.279 12.8026 100.148 12.3705 99.8838 12.1064C99.6198 11.8425 99.1757 11.71 98.5518 11.71C98.2038 11.71 97.8259 11.752 97.418 11.8359C97.022 11.9199 96.6012 12.0636 96.1572 12.2676C95.9294 12.3754 95.7258 12.4063 95.5459 12.3584C95.3779 12.3104 95.2454 12.2143 95.1494 12.0703C95.0535 11.9144 95.0059 11.7463 95.0059 11.5664C95.0059 11.3864 95.0534 11.2119 95.1494 11.0439C95.2454 10.864 95.4078 10.7324 95.6357 10.6484C96.1877 10.4204 96.7157 10.2581 97.2197 10.1621C97.7357 10.0661 98.204 10.0176 98.624 10.0176ZM108.539 7.42578C108.899 7.42578 109.175 7.52199 109.367 7.71387C109.559 7.90579 109.655 8.18778 109.655 8.55957V10.1982H111.563C111.851 10.1983 112.074 10.2701 112.229 10.4141C112.385 10.5581 112.464 10.768 112.464 11.0439C112.464 11.3079 112.385 11.5178 112.229 11.6738C112.074 11.8178 111.851 11.8896 111.563 11.8896H109.655V15.5977C109.655 16.1734 109.781 16.6056 110.033 16.8936C110.285 17.1816 110.694 17.3262 111.258 17.3262C111.462 17.3261 111.642 17.3084 111.798 17.2725C111.954 17.2366 112.091 17.2122 112.211 17.2002C112.355 17.1882 112.475 17.2359 112.571 17.3438C112.667 17.4398 112.716 17.6441 112.716 17.9561C112.716 18.1958 112.674 18.4117 112.59 18.6035C112.518 18.7835 112.38 18.9104 112.176 18.9824C112.02 19.0304 111.815 19.0724 111.563 19.1084C111.312 19.1564 111.089 19.1797 110.897 19.1797C110.118 19.1797 109.464 19.0481 108.936 18.7842C108.42 18.5202 108.035 18.1358 107.783 17.6318C107.531 17.1159 107.405 16.4795 107.405 15.7236V11.8896H106.47C106.182 11.8896 105.96 11.8178 105.804 11.6738C105.648 11.5178 105.569 11.3079 105.569 11.0439C105.569 10.768 105.648 10.5581 105.804 10.4141C105.96 10.2701 106.182 10.1982 106.47 10.1982H107.405V8.55957C107.405 8.18778 107.501 7.90579 107.693 7.71387C107.897 7.52195 108.179 7.42585 108.539 7.42578ZM119.859 10.0176C120.771 10.0176 121.563 10.2043 122.235 10.5762C122.907 10.9482 123.43 11.4762 123.802 12.1602C124.174 12.8441 124.359 13.654 124.359 14.5898C124.359 15.2978 124.252 15.9341 124.036 16.498C123.832 17.062 123.532 17.5481 123.136 17.9561C122.74 18.352 122.266 18.658 121.714 18.874C121.162 19.078 120.543 19.1797 119.859 19.1797C118.948 19.1796 118.155 18.994 117.483 18.6221C116.812 18.2501 116.29 17.7219 115.918 17.0381C115.546 16.3421 115.359 15.5258 115.359 14.5898C115.359 13.8819 115.462 13.2521 115.666 12.7002C115.882 12.1362 116.188 11.6558 116.584 11.2598C116.98 10.8519 117.454 10.5458 118.006 10.3418C118.558 10.1259 119.176 10.0176 119.859 10.0176ZM65.7061 6.14844C66.126 6.14847 66.4442 6.26784 66.6602 6.50781C66.8881 6.73581 67.002 7.06049 67.002 7.48047V17.8662C67.0019 18.2621 66.9002 18.5804 66.6963 18.8203C66.4923 19.0483 66.216 19.1621 65.8682 19.1621C65.5322 19.1621 65.2616 19.0959 65.0576 18.9639C64.8657 18.8319 64.6556 18.6219 64.4277 18.334L58.5957 10.8848V17.8115C58.5957 18.2435 58.4875 18.5803 58.2715 18.8203C58.0555 19.0481 57.7316 19.1621 57.2998 19.1621C56.88 19.1621 56.5561 19.0481 56.3281 18.8203C56.1121 18.5803 56.0039 18.2435 56.0039 17.8115V7.55176C56.0039 7.09588 56.1122 6.74777 56.3281 6.50781C56.556 6.26803 56.8558 6.14851 57.2275 6.14844C57.5514 6.14844 57.7978 6.2138 57.9658 6.3457C58.1458 6.4657 58.3501 6.67001 58.5781 6.95801L64.4102 14.3857V7.48047C64.4102 7.06047 64.5184 6.73581 64.7344 6.50781C64.9624 6.26804 65.2863 6.14844 65.7061 6.14844ZM87.4102 10.0176C88.0821 10.0176 88.6344 10.1501 89.0664 10.4141C89.5104 10.6781 89.8406 11.0801 90.0566 11.6201C90.2726 12.148 90.3808 12.8199 90.3809 13.6357V17.9922C90.3808 18.3641 90.2782 18.6525 90.0742 18.8564C89.8822 19.0482 89.6059 19.1436 89.2461 19.1436C88.8866 19.1435 88.6109 19.0481 88.4189 18.8564C88.227 18.6525 88.1309 18.3641 88.1309 17.9922V13.7256C88.1308 13.0538 88.016 12.5619 87.7881 12.25C87.5721 11.9382 87.2006 11.7823 86.6729 11.7822C86.0849 11.7822 85.6221 11.9921 85.2861 12.4121C84.9503 12.8201 84.7822 13.3902 84.7822 14.1221V17.9922C84.7822 18.3641 84.6861 18.6525 84.4941 18.8564C84.3022 19.0481 84.0265 19.1435 83.667 19.1436C83.3071 19.1436 83.0243 19.0484 82.8203 18.8564C82.6283 18.6525 82.5323 18.3641 82.5322 17.9922V13.7256C82.5322 13.0538 82.4184 12.5619 82.1904 12.25C81.9745 11.9381 81.6086 11.7823 81.0928 11.7822C80.5048 11.7822 80.0421 11.9921 79.7061 12.4121C79.3702 12.8201 79.2021 13.3902 79.2021 14.1221V17.9922C79.2021 18.7601 78.8243 19.1436 78.0684 19.1436C77.7085 19.1435 77.4322 19.0484 77.2402 18.8564C77.0483 18.6525 76.9522 18.3641 76.9521 17.9922V11.1885C76.9521 10.8165 77.0483 10.5338 77.2402 10.3418C77.4322 10.1498 77.7028 10.0537 78.0508 10.0537C78.3985 10.0538 78.6684 10.15 78.8604 10.3418C79.0524 10.5338 79.1484 10.8165 79.1484 11.1885V11.5479C79.3787 11.1396 79.6846 10.8037 80.0664 10.54C80.5703 10.1921 81.1703 10.0176 81.8662 10.0176C82.5742 10.0176 83.1563 10.1865 83.6123 10.5225C83.9922 10.8024 84.2746 11.2075 84.4629 11.7373C84.7057 11.2582 85.0514 10.8706 85.5029 10.5762C86.0548 10.2043 86.6904 10.0176 87.4102 10.0176ZM133.345 10.0176C133.597 9.99359 133.794 10.06 133.938 10.2158C134.094 10.3598 134.185 10.5884 134.209 10.9004C134.233 11.2 134.161 11.4458 133.993 11.6377C133.837 11.8177 133.596 11.9259 133.272 11.9619L132.877 11.998C132.145 12.07 131.593 12.2977 131.221 12.6816C130.849 13.0536 130.663 13.5818 130.663 14.2656V17.9922C130.663 18.3641 130.567 18.6525 130.375 18.8564C130.183 19.0483 129.901 19.1435 129.529 19.1436C129.157 19.1436 128.869 19.0482 128.665 18.8564C128.473 18.6525 128.377 18.3641 128.377 17.9922V11.1885C128.377 10.8165 128.473 10.5338 128.665 10.3418C128.857 10.15 129.127 10.0538 129.475 10.0537C129.823 10.0537 130.093 10.1498 130.285 10.3418C130.477 10.5338 130.573 10.8165 130.573 11.1885V11.7588C130.76 11.3105 131.029 10.9515 131.383 10.6836C131.875 10.3117 132.529 10.0896 133.345 10.0176ZM71.2842 10.0723C71.6442 10.0723 71.9203 10.1805 72.1123 10.3965C72.3162 10.6005 72.4189 10.9 72.4189 11.2959V17.9023C72.4189 18.286 72.3227 18.5858 72.1309 18.8018C71.9389 19.0178 71.6562 19.126 71.2842 19.126C70.9244 19.1259 70.6489 19.0176 70.457 18.8018C70.2651 18.5858 70.169 18.2862 70.1689 17.9023V11.2959C70.169 10.9 70.2651 10.6005 70.457 10.3965C70.649 10.1806 70.9244 10.0724 71.2842 10.0723ZM40.4395 6.30957C40.8114 6.3096 41.1053 6.38798 41.3213 6.54395C41.5492 6.68788 41.705 6.88586 41.7891 7.1377C41.8731 7.3897 41.8731 7.67795 41.7891 8.00195C41.7051 8.31395 41.5372 8.62648 41.2852 8.93848L35.3662 16.6777H40.9434C41.3393 16.6778 41.6388 16.7804 41.8428 16.9844C42.0588 17.1764 42.167 17.4581 42.167 17.8301C42.167 18.214 42.0588 18.5079 41.8428 18.7119C41.6388 18.9038 41.3392 19 40.9434 19H33.4189C33.0591 19 32.765 18.9281 32.5371 18.7842C32.3091 18.6282 32.1533 18.4239 32.0693 18.1719C31.9974 17.9079 31.9973 17.6196 32.0693 17.3076C32.1534 16.9958 32.3214 16.6839 32.5732 16.3721L38.4795 8.63184H33.2031C32.8072 8.63182 32.5011 8.53013 32.2852 8.32617C32.0812 8.12217 31.9795 7.83391 31.9795 7.46191C31.9795 7.09005 32.0813 6.80819 32.2852 6.61621C32.5011 6.41223 32.8072 6.30959 33.2031 6.30957H40.4395ZM52.125 6.30957C52.4849 6.30957 52.7555 6.40575 52.9355 6.59766C53.1275 6.7776 53.2236 7.04182 53.2236 7.38965C53.2236 7.74955 53.1274 8.02578 52.9355 8.21777C52.7555 8.39777 52.485 8.48828 52.125 8.48828H47.0498V11.458H51.7119C52.0836 11.4581 52.3591 11.5543 52.5391 11.7461C52.731 11.926 52.8271 12.1958 52.8271 12.5557C52.8271 12.9157 52.7311 13.1918 52.5391 13.3838C52.3591 13.5637 52.0836 13.6542 51.7119 13.6543H47.0498V16.8223H52.125C52.485 16.8223 52.7555 16.9184 52.9355 17.1104C53.1274 17.2903 53.2236 17.5545 53.2236 17.9023C53.2236 18.2622 53.1275 18.5385 52.9355 18.7305C52.7555 18.9103 52.4849 19 52.125 19H45.8438C45.3758 19 45.0157 18.874 44.7637 18.6221C44.5117 18.3701 44.3857 18.01 44.3857 17.542V7.76758C44.3858 7.29986 44.5118 6.94039 44.7637 6.68848C45.0157 6.43648 45.3757 6.30957 45.8438 6.30957H52.125ZM99.668 15.0762C98.924 15.0762 98.3297 15.1116 97.8857 15.1836C97.4419 15.2556 97.1237 15.3816 96.9316 15.5615C96.7516 15.7295 96.6621 15.9702 96.6621 16.2822C96.6622 16.678 96.7995 17.002 97.0752 17.2539C97.3512 17.5059 97.7356 17.6318 98.2275 17.6318C98.6234 17.6318 98.9715 17.5422 99.2715 17.3623C99.5835 17.1703 99.8298 16.9119 100.01 16.5879C100.19 16.2639 100.279 15.8916 100.279 15.4717V15.0762H99.668ZM119.859 11.7275C119.416 11.7276 119.025 11.8358 118.689 12.0518C118.354 12.2558 118.089 12.5739 117.897 13.0059C117.717 13.4258 117.628 13.9539 117.628 14.5898C117.628 15.5377 117.831 16.258 118.239 16.75C118.647 17.2299 119.188 17.4696 119.859 17.4697C120.303 17.4697 120.693 17.3623 121.029 17.1465C121.365 16.9305 121.624 16.6122 121.804 16.1924C121.996 15.7604 122.092 15.2258 122.092 14.5898C122.092 13.6299 121.887 12.9162 121.479 12.4482C121.071 11.9682 120.531 11.7275 119.859 11.7275ZM71.2842 6.02246C71.7161 6.02246 72.0464 6.12416 72.2744 6.32812C72.5024 6.53212 72.6162 6.82598 72.6162 7.20996C72.6162 7.58196 72.5024 7.8758 72.2744 8.0918C72.0464 8.29579 71.7162 8.39844 71.2842 8.39844C70.8644 8.39837 70.5348 8.29568 70.2949 8.0918C70.0669 7.8758 69.9521 7.58196 69.9521 7.20996C69.9522 6.82598 70.0669 6.53212 70.2949 6.32812C70.5348 6.12426 70.8645 6.02253 71.2842 6.02246ZM17.0186 1.54199C17.7734 1.54199 18.3848 2.12585 18.3848 2.8457C18.3845 3.56538 17.7733 4.14844 17.0186 4.14844C16.2639 4.14839 15.6526 3.56535 15.6523 2.8457C15.6523 2.12587 16.2637 1.54204 17.0186 1.54199Z" fill="white"/>
</g>
<defs>
<clipPath id="clip0_11917_14273">
<rect width="135" height="24" fill="white"/>
</clipPath>
</defs>
</svg>
